<svg width="1268" height="894" viewBox="0 0 1268 894" fill="none" xmlns="http://www.w3.org/2000/svg">
<path d="M1263.85 893.509C1262.06 893.509 1260.61 892.06 1260.61 890.273L1260.61 880.979C1260.61 874.059 1255 868.449 1248.08 868.449L1099.68 868.449C1090.38 868.449 1081.73 873.168 1076.69 880.979C1071.65 888.79 1062.99 893.509 1053.7 893.509L209.34 893.509C200.046 893.509 191.387 888.79 186.35 880.979C181.313 873.168 172.654 868.449 163.36 868.449L14.9555 868.449C8.03548 868.449 2.42574 874.059 2.42574 880.979L2.42574 892.296C2.42574 892.966 1.88277 893.509 1.21285 893.509C0.54293 893.509 -3.90328e-05 892.966 -3.90035e-05 892.296L-4.91309e-06 112.398C-4.19074e-06 95.8731 13.3965 82.4766 29.9219 82.4766L119.6 82.4766C129.732 82.4766 139.177 77.3487 144.695 68.8506L180.556 13.6259C186.074 5.12792 195.519 1.41955e-05 205.651 1.46385e-05L1064.67 5.21873e-05C1074.8 5.26302e-05 1084.25 5.1281 1089.76 13.6263L1125.62 68.8494C1131.14 77.3476 1140.59 82.4756 1150.72 82.4756L1237.16 82.4756C1253.69 82.4756 1267.08 95.8721 1267.08 112.397L1267.08 890.273C1267.08 892.06 1265.64 893.509 1263.85 893.509Z" fill="#501810"/>
</svg>
