<svg width="66" height="66" viewBox="0 0 66 66" fill="none" xmlns="http://www.w3.org/2000/svg">
<path d="M33 44C22.275 44 13.75 35.475 13.75 24.75C13.75 14.025 22.275 5.5 33 5.5C43.725 5.5 52.25 14.025 52.25 24.75C52.25 35.475 43.725 44 33 44ZM33 11C25.3 11 19.25 17.05 19.25 24.75C19.25 32.45 25.3 38.5 33 38.5C40.7 38.5 46.75 32.45 46.75 24.75C46.75 17.05 40.7 11 33 11Z" fill="#501810"/>
<path d="M45.1002 60.225L33.0002 47.85L20.9002 60.225L17.0502 48.95L6.3252 45.375L17.3252 33.825L21.1752 37.675L16.2252 42.9L21.4502 44.55L23.1002 49.775L33.0002 40.15L42.9002 49.775L44.5502 44.55L49.7752 42.9L44.8252 37.675L48.6752 33.825L60.2252 45.1L48.9502 48.95L45.1002 60.225ZM35.7502 33H30.2502V22H27.5002V16.5H35.7502V33Z" fill="#501810"/>
<path opacity="0.3" d="M46.7499 35.75H45.3749C42.3499 39.05 37.9499 41.25 32.9999 41.25C28.0499 41.25 23.6499 39.05 20.6249 35.75H19.2499L11.2749 44L19.2499 46.75L21.9999 55C21.9999 55 29.4249 47.575 32.9999 44L43.9999 55L46.7499 46.75L54.9999 44L46.7499 35.75Z" fill="#501810"/>
</svg>
