<svg width="71" height="91" viewBox="0 0 71 91" fill="none" xmlns="http://www.w3.org/2000/svg">
<path d="M69.0985 42.5655C58.9642 42.4583 48.6524 37.794 40.8096 29.77C37.6384 26.525 35.018 22.8771 33 19C34.593 29.2674 40.7024 36.9513 45.278 47.5033C51.709 62.3389 50.8367 75.7515 39.3571 87.4086C38.4368 88.3437 37.1432 89.264 36.2709 90.2102C36.0898 90.406 35.8607 90.528 35.9235 90.8496C53.8083 90.3765 65.6834 74.2436 69.2944 57.4713C70.3219 52.6961 70.7062 47.6437 70.4401 42.5803L69.0948 42.5655H69.0985Z" fill="#501810"/>
<path d="M54.3374 8.61161C55.4832 9.64278 57.1426 11.4538 58.0925 12.6735C63.1855 19.2005 66.8889 27.2319 67.9533 35.5958C50.2903 35.4074 33.7804 18.3357 34.0022 5.72205e-06C41.8672 0.495265 48.4497 3.31529 54.3337 8.6153" fill="#501810"/>
<path d="M35.3063 90.8062C29.4999 90.9134 24.1962 89.1319 19.3471 85.946C3.07374 75.2572 -2.81024 52.1427 1.22945 33.3783C4.8441 16.606 16.7192 0.473084 34.6003 0C34.6632 0.321549 34.434 0.443517 34.2529 0.639403C33.3807 1.58557 32.0908 2.50586 31.1668 3.44094C19.6871 15.098 18.8149 28.5107 25.2458 43.3463C31.4994 57.7642 40.6321 66.8267 37.1579 84.4565C36.7551 86.5078 35.9309 88.4149 35.48 90.444C35.3654 90.5548 35.2878 90.6251 35.3026 90.8062" fill="#78B457"/>
</svg>
