<svg width="231" height="91" viewBox="0 0 231 91" fill="none" xmlns="http://www.w3.org/2000/svg">
<path d="M229.098 42.5655C218.964 42.4583 208.652 37.794 200.81 29.77C197.638 26.525 195.018 22.8771 193 19C194.593 29.2674 200.702 36.9513 205.278 47.5033C211.709 62.3389 210.837 75.7515 199.357 87.4086C198.437 88.3437 197.143 89.264 196.271 90.2102C196.09 90.406 195.861 90.528 195.924 90.8496C213.808 90.3765 225.683 74.2436 229.294 57.4713C230.322 52.6961 230.706 47.6437 230.44 42.5803L229.095 42.5655H229.098Z" fill="#501810"/>
<path d="M214.337 8.61161C215.483 9.64278 217.143 11.4538 218.093 12.6735C223.186 19.2005 226.889 27.2319 227.953 35.5958C210.29 35.4074 193.78 18.3357 194.002 5.72205e-06C201.867 0.495265 208.45 3.31529 214.334 8.6153" fill="#501810"/>
<path d="M195.306 90.8062C189.5 90.9134 184.196 89.1319 179.347 85.946C163.074 75.2572 157.19 52.1427 161.229 33.3783C164.844 16.606 176.719 0.473084 194.6 0C194.663 0.321549 194.434 0.443517 194.253 0.639403C193.381 1.58557 192.091 2.50586 191.167 3.44094C179.687 15.098 178.815 28.5107 185.246 43.3463C191.499 57.7642 200.632 66.8267 197.158 84.4565C196.755 86.5078 195.931 88.4149 195.48 90.444C195.365 90.5548 195.288 90.6251 195.303 90.8062" fill="#78B457"/>
<path d="M47.5431 19.3359C47.7407 19.5436 47.7605 19.8797 47.7654 20.1763C47.8049 24.6005 47.8445 29.0198 47.8889 33.4441C47.8939 34.1312 47.9383 34.9073 48.4473 35.372C48.8426 35.7378 49.4207 35.807 49.9543 35.8564C53.502 36.1728 57.0744 36.1777 60.622 35.8712C60.7801 35.8564 60.9531 35.8366 61.0717 35.7328C61.2298 35.5944 61.2446 35.3522 61.2495 35.1396C61.2742 32.9102 61.299 30.6857 61.3237 28.4563C61.3286 27.9175 61.3088 27.3095 60.9234 26.9338C60.6912 26.7064 60.3651 26.6075 60.0489 26.5334C58.6901 26.1923 57.272 26.0835 55.8786 26.2121C55.0584 26.2862 54.1937 26.4345 53.4427 26.1033C52.6916 25.7721 52.2074 24.6994 52.7806 24.1013C53.0869 23.7799 53.5761 23.7157 54.0208 23.6811C56.8075 23.4636 59.614 23.5822 62.3712 24.037C63.0085 24.1408 63.7102 24.3039 64.0758 24.8378C64.3476 25.2333 64.3723 25.7424 64.3871 26.2269C64.476 29.4153 64.565 32.6087 64.6539 35.7971C65.5631 35.9207 66.7193 36.2964 66.7341 37.2158C66.7687 39.2129 62.9443 38.5159 61.8276 38.506C59.5251 38.4863 57.2226 38.4615 54.9151 38.4319C48.887 38.3528 42.8589 38.244 36.8309 38.1501C36.2182 38.1402 35.5511 38.1501 35.062 38.5159C34.0145 39.3019 34.0886 40.9826 33.0658 41.9119C31.9046 42.9698 30.2346 43.3851 28.6979 43.4295C26.5535 43.4889 24.4041 42.9896 22.2795 43.2911C22.2795 42.4953 22.2795 41.6994 22.2795 40.9035C24.6462 41.0073 27.0229 40.9035 29.3748 40.5822C30.0814 40.4883 30.9362 40.2362 31.0745 39.5392C31.1931 38.9559 30.6792 38.3973 30.1011 38.2391C29.523 38.0809 28.9202 38.2094 28.3322 38.3132C26.5436 38.6345 24.5326 38.6988 23.0799 37.6014C19.7546 35.0951 20.1153 26.8893 23.4999 24.5462C24.4387 23.8936 25.6097 23.6761 26.7462 23.5674C28.6089 23.3894 30.4915 23.4537 32.3345 23.7651C32.8731 23.8541 33.4265 23.9777 33.8563 24.3138C34.8643 25.1047 34.7358 26.6322 34.5876 27.9027C34.3653 29.8207 34.3801 31.7386 34.3999 33.6616C34.4097 34.4229 34.6173 35.2682 35.2497 35.6883C35.5956 35.9207 36.0255 35.9899 36.4405 36.0443C38.5158 36.3013 40.6355 36.1678 42.6613 35.6636C43.1603 35.54 43.6792 35.372 44.025 34.9913C44.4796 34.4871 44.5093 33.7407 44.5093 33.0635C44.5389 28.4168 44.5735 23.775 44.6031 19.1283L46.8266 19.1382C47.0489 19.1382 47.2861 19.1432 47.4689 19.2766C47.4986 19.2964 47.5233 19.3211 47.5431 19.3409V19.3359ZM31.366 36.0047V26.652C29.7059 25.7227 25.8123 25.7177 24.8834 27.7296C24.1027 29.4301 23.9347 35.9998 26.5436 35.9998H31.366V36.0047Z" fill="#78B457"/>
<path d="M145.544 36.0048C147.164 35.644 147.495 30.9528 145.647 30.3102C143.552 29.5835 138.478 30.5277 135.923 30.152C131.827 29.5538 132.025 22.8013 135.424 21.4221C138.369 20.2308 142.544 19.8946 145.662 18.9999C145.573 19.4893 145.806 21.4468 145.638 21.6495C145.331 22.0203 137.88 23.3648 136.551 24.2645C135.123 25.2334 135.578 27.4332 137.569 27.7199C140.504 28.145 144.239 27.3689 147.194 27.7347C150.529 28.1499 150.633 33.029 150.104 35.6094C149.778 37.1962 149.057 38.17 147.431 38.432C146.912 38.516 146.334 38.4369 145.811 38.4369H143.849C142.54 38.4369 141.23 38.4369 139.926 38.4419C137.307 38.4419 134.693 38.4419 132.074 38.4468H130.582C130.449 38.4468 130.305 38.4468 130.197 38.5308C130.073 38.6198 130.029 38.783 129.994 38.9313C129.782 39.8161 129.564 40.8937 128.962 41.5957C128.359 42.2976 127.504 42.7425 126.624 42.9897C125.527 43.2912 124.381 43.3061 123.245 43.3209C121.792 43.3357 120.344 43.3555 118.892 43.3703C118.437 43.3753 117.928 43.3555 117.622 43.0194C117.311 42.6783 117.345 42.1543 117.414 41.6946C117.513 41.0223 117.844 40.7751 118.521 40.7652C119.806 40.7455 121.09 40.8641 122.375 40.8542C123.526 40.8443 124.88 40.8048 125.868 40.1424C126.427 39.7667 126.847 39.1339 126.812 38.4617C126.802 38.2343 122.345 38.516 121.97 38.521C120.814 38.5407 119.588 38.3776 118.669 37.6707C117.212 36.5486 116.836 34.418 116.673 32.7027C116.495 30.8341 116.599 28.9161 117.177 27.1267C117.493 26.1479 117.982 25.1741 118.813 24.566C119.44 24.1063 120.216 23.8938 120.982 23.7603C122.326 23.528 123.694 23.5181 125.058 23.5032C126.111 23.4934 127.173 23.4884 128.186 23.7652C128.957 23.9778 129.742 24.4177 130.019 25.1642C130.152 25.525 130.152 25.9156 130.152 26.3011C130.152 29.5291 130.152 32.7571 130.147 35.99C134.743 35.99 139.333 35.99 143.928 35.99C144.002 35.99 144.071 35.99 144.145 35.99H145.559L145.544 36.0048ZM126.842 35.9999C126.871 32.9548 126.842 29.9147 126.847 26.8696C126.847 26.8449 126.847 26.8202 126.847 26.7905C126.847 25.9156 124.297 26.0342 123.764 26.0639C122.528 26.138 120.942 26.489 120.364 27.7298C120.058 28.3922 120.013 29.2918 119.979 30.0037C119.914 31.373 119.766 32.9202 120.211 34.2401C120.448 34.947 120.947 35.6094 121.654 35.8565C122.034 35.99 122.449 35.9949 122.854 35.9949C124.184 35.9999 125.513 35.9999 126.842 35.9949V35.9999Z" fill="#78B457"/>
<path d="M73.9528 28.5058L76.4431 28.4514C76.5863 28.4514 76.7346 28.4514 76.8581 28.5206C77.0162 28.6145 77.0854 28.8024 77.1299 28.9754C77.6388 30.928 76.3442 33.6172 77.9847 35.2237C78.5726 35.7971 79.4225 36.0097 80.2427 36.0493C81.0876 36.0888 81.9968 35.9356 82.6243 35.3671C83.2123 34.8283 83.4594 34.0126 83.5631 33.2217C83.8744 30.9132 83.2271 28.5256 83.7509 26.2566C83.8991 25.614 84.156 24.9713 84.6403 24.5264C85.1047 24.0964 85.7322 23.8937 86.3499 23.7553C87.9656 23.3994 89.6604 23.429 91.2613 23.8443C91.6269 23.9382 91.9975 24.0618 92.2692 24.3238C92.6546 24.6995 92.7436 25.2778 92.7881 25.8166C92.9956 28.5997 92.3878 31.4273 92.8375 34.1807C92.9264 34.7393 93.1043 35.3523 93.5836 35.6489C93.88 35.8318 94.2457 35.8614 94.5965 35.8812C95.8861 35.9553 97.1807 35.9751 98.4752 35.9405C99.1225 35.9257 99.7698 35.896 100.412 35.8515C100.961 35.8169 101.845 35.9059 102.349 35.6834C102.636 35.5549 102.561 35.5203 102.492 35.1743C102.428 34.8579 102.364 34.5366 102.309 34.2153C102.201 33.5974 102.107 32.9795 102.043 32.3566C101.914 31.1257 101.894 29.88 102.087 28.6541C102.141 28.313 102.211 27.9719 102.3 27.6358C102.606 26.484 103.154 25.352 104.093 24.6204C104.869 24.0173 105.852 23.7306 106.826 23.6169C107.799 23.5032 108.792 23.5477 109.775 23.5378C110.867 23.523 111.964 23.4389 113.041 23.5922C113.496 23.6564 113.956 23.7701 114.336 24.0272C114.855 24.3781 115.171 24.9713 115.319 25.5843C115.467 26.1973 115.463 26.83 115.453 27.4578C115.433 29.2868 115.413 31.1208 115.393 32.9498C115.379 34.5119 115.285 36.2618 114.143 37.3345C113.185 38.2342 111.747 38.4319 110.492 38.6C108.14 38.9114 105.748 38.7038 103.382 38.6247C100.417 38.5258 97.4623 38.3281 94.4927 38.427C92.8572 38.4814 91.0587 38.511 90.1495 36.8946C89.7295 36.1481 89.5912 35.2781 89.5467 34.4229C89.4677 32.8954 89.6604 31.3729 89.7789 29.8504C89.8382 29.0545 89.8778 28.2438 89.7048 27.4628C89.6307 27.1167 89.5023 26.7608 89.2404 26.5186C88.855 26.1676 88.2423 26.1528 87.7828 26.4049C87.3233 26.657 87.0219 27.1217 86.8687 27.6209C86.7155 28.1202 86.7007 28.6442 86.7106 29.1682C86.7353 30.9923 87.0218 32.8312 86.7106 34.6305C86.5129 35.7922 86.0188 36.9638 85.0652 37.6509C84.2845 38.2095 83.2914 38.3776 82.3328 38.4715C81.1667 38.5802 79.9907 38.6 78.8246 38.5209C77.7475 38.4517 76.7395 38.3874 75.8106 37.7942C74.0763 36.6771 73.8045 34.3834 73.8737 32.5049C73.9231 31.1752 74.0961 29.8405 73.9478 28.5157L73.9528 28.5058ZM111.989 26.3307C109.934 26.0638 106.425 25.525 105.605 28.0362C105.072 29.6724 105.072 31.5261 105.353 33.2118C105.457 33.8396 105.664 34.4625 106.06 34.9568C107.31 36.4991 110.655 36.4447 111.777 34.764C112.31 33.9681 112.3 32.9745 112.31 32.0501C112.32 31.279 112.32 30.5128 112.305 29.7416C112.29 28.9705 112.271 28.2191 112.206 27.4628C112.187 27.2304 112.216 26.484 111.984 26.3307" fill="#78B457"/>
<path d="M19.8385 23.6169C19.8385 25.7524 19.8385 27.8879 19.8385 30.0234C19.8385 33.281 19.9225 37.1516 16.1723 38.3232C14.6257 38.8076 12.9804 38.7038 11.3844 38.7236C9.63526 38.7483 7.88119 38.8125 6.13205 38.7038C2.32744 38.4616 0.00515468 36.0987 0.000213623 32.2627C0.000213623 30.4584 0.301617 28.6491 0.0842106 26.8597C1.1663 26.9981 2.26321 27.0772 3.35519 27.0821C3.37001 28.9408 3.37989 30.7995 3.39471 32.6581C3.39966 33.3947 3.42436 34.1906 3.86906 34.7838C4.29893 35.3473 5.02032 35.5945 5.70712 35.7675C7.99977 36.336 16.5429 37.379 16.5429 33.2217V23.6267H19.8336L19.8385 23.6169Z" fill="#78B457"/>
<path d="M113.763 69.4314C109.835 66.327 110.675 59.0455 115.236 56.9249C121.58 53.9688 127.944 59.7178 125.315 66.6038C123.591 71.122 117.331 72.2441 113.768 69.4265M121.303 69.1496C124.881 66.3468 123.798 57.5082 118.724 57.1275C112.943 56.6975 112.192 66.0354 116.145 69.0359C117.815 70.3014 119.692 70.4102 121.303 69.1496Z" fill="#501810"/>
<path d="M21.6617 56.2281C32.616 54.8341 32.8037 71.6759 22.0767 70.9789C13.2273 70.4054 13.3014 57.2909 21.6617 56.2281ZM25.8714 68.9571C29.1622 65.8131 27.7589 56.9844 22.3089 57.1179C15.7472 57.281 16.7157 70.8454 23.6974 69.9902C24.3397 69.9111 25.402 69.402 25.8714 68.9521" fill="#501810"/>
<path d="M98.3912 63.9392L98.3764 64.8933C98.3022 64.9724 97.6895 64.8389 97.4375 65.0168C96.9138 65.3826 97.3733 69.3373 97.2004 70.2419C95.0609 70.5088 93.2426 71.1663 91.0438 70.9142C86.3004 70.3754 83.7212 67.0634 84.2993 62.1398C84.9663 56.5243 92.5558 55.1253 96.8743 56.8752L97.2103 60.5333C96.1282 60.7013 96.1776 59.2876 95.5303 58.5065C93.5292 56.1041 89.6653 57.0482 87.9458 59.3419C85.159 63.0593 87.2985 69.7228 92.1654 70.0096C94.7842 70.1628 95.3129 68.9319 95.0905 66.485C94.9275 64.6955 94.3691 64.8883 92.7435 64.9031C92.7781 64.7301 92.6991 63.9343 92.7435 63.9343C93.5242 63.9343 98.1935 63.7217 98.3862 63.9343" fill="#501810"/>
<path d="M135.197 56.6529C138.048 57.2411 138.34 62.0411 135.316 62.8468C135.578 63.4301 137.91 63.3016 138.315 65.3333C138.73 67.4144 137.816 69.2434 135.914 70.0294C135.721 70.1085 134.343 70.504 134.254 70.504H127.079V69.7773C128.73 69.9009 129.076 69.2929 129.204 67.7209C129.362 65.7683 129.446 60.5877 129.14 58.7834C128.947 57.6415 128.458 57.2362 127.312 57.3894V56.6628C129.599 56.989 133.063 56.2228 135.193 56.6628M131.082 62.7232C133.468 63.1236 136.28 61.8235 135.138 58.9021C134.432 57.0978 131.082 56.732 131.082 58.4769V62.7282V62.7232ZM131.082 63.4548V67.9483L131.605 69.4708C132.643 70.4051 135.514 69.3374 135.909 67.8346C136.848 64.2754 133.967 63.1236 131.077 63.4548" fill="#501810"/>
<path d="M75.9294 56.6529C76.5767 56.8605 76.1765 59.3965 76.2803 60.0539C75.0302 60.3901 75.3316 57.6268 74.0469 57.6268H70.4004V62.9705C71.1564 63.0347 73.7998 62.9556 74.1852 62.3229C74.5756 61.6803 73.9777 61.0178 75.3414 61.27V65.279C75.3414 65.5261 74.5706 65.7881 74.4027 65.6448C74.3285 65.5805 74.373 64.4188 73.9975 64.1816C73.2662 63.712 71.3046 64.053 70.4004 63.9443V68.9222L70.9884 69.5302H74.7535C74.8078 69.5302 75.4699 68.9815 75.5786 68.8579C76.0381 68.3389 76.3643 66.5642 77.1005 66.8608C77.8663 67.1673 76.6607 69.7872 76.7497 70.504H66.1659V69.7774C67.8162 69.9009 68.1621 69.2979 68.2906 67.721C68.4487 65.7436 68.5475 60.5779 68.2659 58.739C68.0139 57.083 66.5464 57.5427 66.3982 57.3845C66.3537 57.3351 66.4278 56.8556 66.3982 56.6579H75.9245L75.9294 56.6529Z" fill="#501810"/>
<path d="M149.66 56.6529C149.388 57.2807 150.322 59.8809 149.536 60.0539C148.81 60.2121 148.568 57.6268 147.659 57.6268H143.78V62.9705C144.343 62.9062 147.273 62.8518 147.51 62.6986C147.94 62.4218 147.268 60.7855 148.716 61.2749V65.6448C147.629 65.8672 147.881 64.8835 147.56 64.3496C147.125 63.6329 144.6 64.053 143.78 63.9443V68.4377C143.78 69.8466 147.179 69.6884 148.078 69.4808C149.467 69.1595 149.432 67.6715 150.015 67.108C151.606 65.5706 150.272 69.8219 150.366 70.504H139.55V69.7774C140.603 69.8367 141.527 69.634 141.68 68.4526C142.085 65.3284 141.349 61.2798 141.67 58.0469C141.191 57.5032 140.484 57.2956 139.787 57.3845C139.689 57.1571 139.995 56.6579 140.138 56.6579H149.665L149.66 56.6529Z" fill="#501810"/>
<path d="M64.0559 56.653C63.7842 57.2808 64.7181 59.881 63.9324 60.054C63.2011 60.2122 63.0035 57.6269 62.0548 57.6269H58.1761V62.6048C58.1761 63.1881 61.4075 63.1535 61.9609 62.3823C62.4452 61.715 61.6793 61.013 63.1122 61.2651V65.635C62.0252 65.8575 62.2772 64.8737 61.956 64.3399C61.5212 63.6231 58.9963 64.0433 58.1761 63.9345V68.428C58.1761 69.8121 61.625 69.6934 62.5193 69.5155C63.715 69.2832 64.5105 66.0997 65.227 66.8511C65.4889 67.1279 64.5797 69.8615 64.7576 70.4943H53.9416V69.7676C55.0385 69.8961 55.9131 69.6786 56.0712 68.4428C56.4517 65.4373 55.7698 61.5815 56.0515 58.4771C55.8093 57.5329 55.0484 57.2512 54.1738 57.3748V56.6481H64.0559V56.653Z" fill="#501810"/>
<path d="M12.7878 60.5386C12.6544 60.4249 12.3727 58.3981 10.9942 57.6517C7.9999 56.0352 4.42752 58.1164 3.49366 61.2603C1.71488 67.2417 8.33589 73.055 12.1652 68.2798C12.8372 67.4394 12.8174 66.3025 13.9637 66.609C14.1614 66.8017 13.1584 70.1286 12.7878 70.3708C11.6365 71.1123 7.3625 70.9838 5.96418 70.6229C-0.94341 68.8483 -1.06693 59.0012 5.68255 56.7125C7.34274 56.1489 11.345 55.8573 12.8668 56.6927C13.4054 56.9893 13.9341 60.1135 13.5092 60.4249C13.3461 60.5435 12.8817 60.6127 12.7977 60.5386" fill="#501810"/>
<path d="M41.2434 56.6529L41.4756 60.0539C40.6801 60.8992 40.2651 57.6268 39.2423 57.6268H35.5958V62.9705H39.0051C39.4004 62.9705 39.7907 61.1958 40.5319 61.27V65.8821C39.4004 66.2528 40.0032 64.5474 38.9557 64.231C38.8223 64.1914 36.3172 63.9443 36.1541 63.9542C35.9367 63.969 35.5908 64.1568 35.5908 64.3101V68.9222C35.5908 69.6983 37.1226 69.812 37.7106 69.7724V70.4991H31.5935V69.7724C32.8535 69.8911 33.3723 69.4659 33.4909 68.2103C33.6688 66.3171 33.7429 60.4988 33.4613 58.734C33.2883 57.6366 32.6262 57.2264 31.5935 57.3845V56.6579H41.2385L41.2434 56.6529Z" fill="#501810"/>
<path d="M52.5287 56.6529L52.7609 60.0539C51.9654 60.8992 51.5504 57.6268 50.5276 57.6268H46.8811V62.9705H50.2904C50.6857 62.9705 51.076 61.1958 51.8172 61.27V65.8821C50.6857 66.2528 51.2885 64.5474 50.241 64.231C50.1076 64.1914 47.6025 63.9443 47.4394 63.9542C47.222 63.969 46.8761 64.1568 46.8761 64.3101V68.9222C46.8761 69.6983 48.4078 69.812 48.9958 69.7724V70.4991H42.8788V69.7724C44.1388 69.8911 44.6576 69.4659 44.7762 68.2103C44.9541 66.3171 45.0282 60.4988 44.7465 58.734C44.5736 57.6366 43.9115 57.2264 42.8788 57.3845V56.6579H52.5237L52.5287 56.6529Z" fill="#501810"/>
<path d="M105.679 56.653V57.3797C104.874 57.3451 103.99 57.2215 103.807 58.2349L103.846 68.8679C104.138 69.8862 107.038 69.7824 107.863 69.471C108.758 69.1349 109.449 66.1442 110.146 66.8511C110.438 67.1477 109.588 69.8714 109.677 70.4943H99.5624V69.7676C100.862 69.8022 101.559 69.6094 101.692 68.2006C101.984 65.1802 101.489 61.6013 101.628 58.5216C101.287 56.9842 99.8243 57.9334 99.5624 56.6481H105.675L105.679 56.653Z" fill="#501810"/>
<path d="M110.853 18.9999H107.562V21.6693H110.853V18.9999Z" fill="#78B457"/>
<path d="M80.0452 40.622H76.7544V43.2914H80.0452V40.622Z" fill="#78B457"/>
<path d="M11.3747 43.2914H8.08392V40.6171C10.7422 40.6319 11.7798 39.9102 11.3747 43.2914Z" fill="#78B457"/>
<path d="M80.7518 43.2911C81.2509 42.5892 80.6629 41.4028 80.7667 41.0123C80.9594 40.2807 83.3706 40.7453 84.0426 40.6168V43.2911H80.7469H80.7518Z" fill="#78B457"/>
<path d="M59.8215 40.6171H56.7629V43.2915H59.8215V40.6171Z" fill="#78B457"/>
</svg>
