<svg width="650" height="804" viewBox="0 0 650 804" fill="none" xmlns="http://www.w3.org/2000/svg">
<g clip-path="url(#clip0_17_79)">
<path d="M0 400H650V1371C650 1398.61 627.614 1421 600 1421H50C22.3858 1421 0 1398.61 0 1371V400Z" fill="#FBE9D9"/>
<path d="M650 445V50C650 27.9086 632.091 10 610 10H354.635C342.739 10 331.461 15.2945 323.862 24.4461L277.232 80.5997C269.633 89.7513 258.354 95.0458 246.459 95.0458H-588C-610.091 95.0458 -628 112.954 -628 135.046V445C-628 467.091 -610.091 485 -588 485H610C632.091 485 650 467.091 650 445Z" fill="#FBE9D9"/>
</g>
<defs>
<clipPath id="clip0_17_79">
<rect width="650" height="804" fill="white"/>
</clipPath>
</defs>
</svg>
